<svg width="1440" height="600" viewBox="0 0 1440 600" xmlns="http://www.w3.org/2000/svg">
  <defs>
    <pattern id="grid" width="30" height="30" patternUnits="userSpaceOnUse">
      <path d="M 30 0 L 0 0 0 30" fill="none" stroke="white" stroke-width="0.5" opacity="0.15"/>
    </pattern>
    <pattern id="dots" width="15" height="15" patternUnits="userSpaceOnUse">
      <circle cx="7.5" cy="7.5" r="1" fill="white" opacity="0.2"/>
    </pattern>
  </defs>
  <rect width="100%" height="100%" fill="url(#grid)"/>
  <rect width="100%" height="100%" fill="url(#dots)"/>
  <g opacity="0.2">
    <path d="M0,100 C150,200 350,0 500,100 C650,200 850,0 1000,100 C1150,200 1350,0 1500,100 V600 H0 Z" fill="white" opacity="0.05"/>
    <path d="M0,200 C150,300 350,100 500,200 C650,300 850,100 1000,200 C1150,300 1350,100 1500,200 V600 H0 Z" fill="white" opacity="0.05"/>
  </g>
</svg>