<svg width="1440" height="400" viewBox="0 0 1440 400" xmlns="http://www.w3.org/2000/svg">
  <defs>
    <pattern id="grid" width="20" height="20" patternUnits="userSpaceOnUse">
      <path d="M 20 0 L 0 0 0 20" fill="none" stroke="white" stroke-width="0.5" opacity="0.1"/>
    </pattern>
    <pattern id="dots" width="10" height="10" patternUnits="userSpaceOnUse">
      <circle cx="5" cy="5" r="1" fill="white" opacity="0.15"/>
    </pattern>
  </defs>
  <rect width="100%" height="100%" fill="url(#grid)"/>
  <rect width="100%" height="100%" fill="url(#dots)"/>
  <g opacity="0.2">
    <circle cx="200" cy="200" r="100" fill="none" stroke="white" stroke-width="1"/>
    <circle cx="600" cy="150" r="80" fill="none" stroke="white" stroke-width="1"/>
    <circle cx="1000" cy="250" r="120" fill="none" stroke="white" stroke-width="1"/>
    <circle cx="1300" cy="150" r="70" fill="none" stroke="white" stroke-width="1"/>
  </g>
  <g opacity="0.1">
    <path d="M0,300 C100,250 200,350 300,300 C400,250 500,350 600,300 C700,250 800,350 900,300 C1000,250 1100,350 1200,300 C1300,250 1400,350 1500,300 V400 H0 Z" fill="white"/>
  </g>
</svg>